PathFileType	4	(X/Y/Z)	C:\Users\Basilio\Documents\Thesis Gigler\squatting_fais\c3dfiles\047\SJ_pre2\markers_experimental.trc
DataRate	CameraRate	NumFrames	NumMarkers	Units	OrigDataRate	OrigDataStartFrame	OrigNumFrames
200.000000	200.000000	4	60	mm	200.000000	1227	1636
Frame#	Time	FHD			LBHD			RBHD			C7			T10			CLAV			LSHO			LUUPA			LMUPA			LDUPA			LLEP			LMEP			LRAD			LUL			LRFIN			RSHO			RUPA1			RMUPA			RDUPA			RLEP			RMEP			RRAD			RUL			RUFIN			RASI			USACR			LSACR			RSACR			LTHI1			LTHI2			LTHI3			LTHI4			LLFC			LMFC			LTIB1			LTIB2			LTIB3			LTIB4			LLMAL			LMMAL			LMT1			LMT2			LMT5			RTHI			RTHI2			RTHI3			RTHI4			RLFC			RMFC			RTIB1			RTIB2			RTIB3			RTIB4			RLMAL			RMMAL			RHEE			RMT1			RMT2			RMT5			LASI			
		X1	Y1	Z1	X2	Y2	Z2	X3	Y3	Z3	X4	Y4	Z4	X5	Y5	Z5	X6	Y6	Z6	X7	Y7	Z7	X8	Y8	Z8	X9	Y9	Z9	X10	Y10	Z10	X11	Y11	Z11	X12	Y12	Z12	X13	Y13	Z13	X14	Y14	Z14	X15	Y15	Z15	X16	Y16	Z16	X17	Y17	Z17	X18	Y18	Z18	X19	Y19	Z19	X20	Y20	Z20	X21	Y21	Z21	X22	Y22	Z22	X23	Y23	Z23	X24	Y24	Z24	X25	Y25	Z25	X26	Y26	Z26	X27	Y27	Z27	X28	Y28	Z28	X29	Y29	Z29	X30	Y30	Z30	X31	Y31	Z31	X32	Y32	Z32	X33	Y33	Z33	X34	Y34	Z34	X35	Y35	Z35	X36	Y36	Z36	X37	Y37	Z37	X38	Y38	Z38	X39	Y39	Z39	X40	Y40	Z40	X41	Y41	Z41	X42	Y42	Z42	X43	Y43	Z43	X44	Y44	Z44	X45	Y45	Z45	X46	Y46	Z46	X47	Y47	Z47	X48	Y48	Z48	X49	Y49	Z49	X50	Y50	Z50	X51	Y51	Z51	X52	Y52	Z52	X53	Y53	Z53	X54	Y54	Z54	X55	Y55	Z55	X56	Y56	Z56	X57	Y57	Z57	X58	Y58	Z58	X59	Y59	Z59	X60	Y60	Z60	

1228	6.135	245.2889862060547	1092.695678710938	-900.9587402343752	85.11604309082033	1138.669067382813	-979.1196289062502	67.62769317626955	1149.498901367188	-831.6799316406252	-30.61381340026856	1046.100952148438	-909.589050292969	-296.8168029785157	879.8498535156252	-896.0970458984377	35.96533203125001	888.2192382812502	-900.064147949219	12.10417842864991	953.0872192382815	-1076.374389648438	-134.2727966308594	989.4012451171877	-1189.182861328125	-137.8083953857422	945.4425048828127	-1214.55224609375	-187.1051177978516	974.6221923828127	-1234.077514648438	-239.3594207763672	934.7468872070315	-1273.379028320313	-293.9711914062501	960.4294433593752	-1194.5654296875	-294.5268554687501	759.9472656250001	-1094.146606445313	-291.1563110351563	708.3105468750001	-1152.48291015625	-261.7992553710938	713.2537231445314	-1052.118286132813	11.33628559112549	985.9768676757815	-743.2999877929689	-156.1603393554688	1035.050537109375	-640.1616210937501	-163.4890289306641	996.2000122070315	-611.0883789062501	-214.6347656250001	1025.511962890625	-601.3008422851564	-269.2041931152344	988.868835449219	-563.9500732421876	-322.6791076660157	994.075866699219	-641.9053955078126	-238.0473937988282	769.4956054687502	-679.5123291015626	-269.9055175781251	739.2339477539064	-616.9887695312501	-242.4449768066407	697.7064208984376	-713.5356445312501	-353.1878662109376	617.9120483398439	-773.3328857421877	-428.1346130371095	800.824645996094	-892.014099121094	-457.4659729003907	785.2705078125002	-918.9409790039065	-456.2467041015626	785.0333251953127	-861.4566040039065	-422.1358032226564	615.5921630859376	-1107.120971679688	-342.6886291503907	604.8129272460939	-1127.2470703125	-314.3798217773438	634.6865234375001	-1101.776123046875	-318.5464477539063	556.8190917968751	-1154.59326171875	-193.7593536376954	448.8410644531251	-1189.572265625	-134.097640991211	434.9930114746095	-1078.934814453125	-186.7764739990235	274.3950500488282	-1105.948364257813	-227.9654083251954	238.201156616211	-1174.058959960938	-204.5059967041016	229.540023803711	-1135.28515625	-247.8685150146485	166.1438598632813	-1100.063842773438	-337.9387512207032	95.61789703369142	-1139.811889648438	-300.2307739257813	103.7140426635742	-1055.093994140625	-186.4653015136719	63.69499969482423	-1109.40185546875	-197.8927459716797	61.90473556518556	-1151.850341796875	-248.9201049804688	45.22947311401368	-1188.594604492188	-389.473114013672	587.4954833984376	-645.1606445312501	-324.7526550292969	584.4136352539064	-629.5711669921876	-303.7791748046876	608.3777465820314	-638.9065551757814	-280.2050476074219	516.5769042968751	-610.7987670898439	-160.7183837890625	436.3833618164064	-605.4415893554689	-112.0006561279297	437.0934143066407	-727.3071289062501	-140.9654235839844	311.5151977539063	-629.4861450195314	-238.6496582031251	262.6139221191407	-610.3483886718751	-197.5029296875001	245.6252899169922	-622.3726196289064	-204.8964080810547	202.4739379882813	-662.2907714843751	-325.4181823730469	90.55052947998048	-659.9631958007814	-283.6387939453126	103.3346099853516	-742.1520996093751	-381.9107971191407	53.79103469848634	-723.9007568359376	-169.0999450683594	55.07472991943361	-698.3533935546876	-177.6395568847657	57.04757690429689	-653.8157348632814	-233.911605834961	30.74979782104493	-605.4163818359376	-363.2792663574219	617.4130249023439	-999.9204711914065	
1229	6.140000000000001	244.716781616211	1093.2021484375	-900.7048950195315	84.63135528564455	1138.905029296875	-979.0034790039065	66.81407928466798	1149.861938476563	-831.6004638671877	-31.0999927520752	1046.374145507813	-909.4451293945315	-297.2871704101563	879.7583007812502	-895.9361572265627	35.56003189086915	888.738952636719	-900.032165527344	11.74203872680664	953.4865722656252	-1076.226196289063	-134.1407623291016	989.2916259765627	-1189.18017578125	-138.2118072509766	945.4926757812502	-1214.487060546875	-187.5275268554688	974.5201416015627	-1233.943969726563	-239.8048858642579	934.6724853515627	-1273.275634765625	-294.5387268066407	960.2629394531252	-1194.462890625	-294.8108215332032	759.7512817382814	-1094.170166015625	-291.4456176757813	708.1324462890626	-1152.482543945313	-259.6878662109376	715.2412719726564	-1053.640991210938	10.74477005004883	986.1840820312502	-743.3890380859376	-157.237060546875	1035.319946289063	-640.2682495117189	-164.0154418945313	996.3571777343752	-610.9039306640626	-215.4348602294922	1025.633178710938	-601.3576049804689	-270.0932617187501	989.193054199219	-563.7815551757814	-323.2317199707032	994.1741943359377	-642.2282104492189	-238.5106506347657	769.5152587890627	-679.5144042968751	-270.3744812011719	739.3640136718751	-616.9725952148439	-243.0148010253907	697.5520019531251	-713.2131347656251	-351.1697692871094	618.3931884765626	-773.836364746094	-428.5332641601564	800.632507324219	-891.9772949218752	-457.7498779296876	784.8308715820315	-918.866638183594	-456.2930603027345	784.5523681640627	-861.4125976562502	-422.1222229003907	615.3283691406251	-1107.1435546875	-342.7520751953126	604.6191406250001	-1127.182006835938	-314.5640258789063	634.5172729492189	-1101.79638671875	-318.6343078613282	556.6458129882814	-1154.491088867188	-193.716781616211	448.8062133789064	-1189.51904296875	-134.0694122314453	434.9192810058595	-1078.85400390625	-186.696044921875	274.4844360351563	-1106.15869140625	-227.9599609375001	238.2910156250001	-1173.8623046875	-204.5415039062501	229.5301971435547	-1135.098022460938	-247.7558746337891	165.9907989501953	-1099.954345703125	-337.8762512207032	95.63191986083986	-1139.780395507813	-300.2912597656251	103.6308288574219	-1055.05908203125	-186.436752319336	63.74578094482423	-1109.423706054688	-197.825912475586	61.97051239013673	-1151.897583007813	-248.9468688964844	45.23742675781251	-1188.59521484375	-389.4690246582032	586.9951171875001	-645.5344238281251	-324.9452514648438	584.0150146484376	-629.4884643554689	-303.8884277343751	608.2069702148439	-638.9334716796876	-280.0936889648438	516.1539306640626	-610.5675659179689	-160.6677703857422	436.3312377929689	-605.5816650390626	-111.9496078491211	437.1091918945314	-727.4320678710939	-140.9782409667969	311.5997619628907	-629.7319335937501	-238.6172637939454	262.6516113281251	-610.2854614257814	-197.4995269775391	245.6080932617188	-622.4259033203126	-204.9230499267579	202.4189910888672	-662.2482910156251	-325.4298095703126	90.51321411132814	-660.0231323242189	-283.6944580078126	103.3177032470703	-742.2247924804689	-381.9287414550782	53.78495407104494	-723.9450683593751	-169.0874938964844	55.07717895507814	-698.4248657226564	-177.6318664550782	57.06374359130861	-653.8552856445314	-233.9184722900391	30.75323677062989	-605.3967285156251	-362.0970153808594	618.0643310546876	-1000.342163085938	
1230	6.145	244.0868072509766	1093.424438476563	-900.2650146484377	84.06062316894533	1139.19580078125	-978.8753051757815	66.40349578857423	1150.26220703125	-831.5818481445315	-31.51230621337891	1046.615600585938	-909.3354492187502	-297.8510437011719	879.710388183594	-895.865661621094	34.69772338867188	889.0169067382815	-899.569763183594	11.26692485809326	953.747985839844	-1076.00732421875	-134.3281707763672	989.548034667969	-1189.137939453125	-138.5983123779297	945.523376464844	-1214.403442382813	-188.0745086669922	974.5273437500002	-1233.8154296875	-240.3049621582032	934.6438598632815	-1273.155639648438	-294.9735107421876	960.1389770507815	-1194.373413085938	-295.1944274902344	759.4940795898439	-1094.186279296875	-291.6625061035157	707.9665527343751	-1152.4765625	-259.8797302246094	715.1401367187501	-1053.699340820313	10.10582828521729	986.6234130859377	-743.2283935546876	-157.8900146484375	1035.62109375	-640.4498291015626	-164.7987976074219	996.7536621093752	-610.8958129882814	-216.3247528076172	1025.947265625	-601.5644531250001	-270.9266662597657	989.296081542969	-563.6707153320314	-323.7220764160157	994.2529296875002	-642.4237060546876	-238.8052978515626	769.690856933594	-679.4987792968751	-271.1198425292969	739.5401000976564	-616.9064331054689	-243.322494506836	697.6537475585939	-713.1776123046876	-350.3621215820313	618.9445190429689	-773.4373779296877	-428.9730529785157	800.4014282226565	-891.9207763671877	-458.0953063964845	784.3986816406252	-918.785583496094	-456.5032043457032	784.315856933594	-861.3510742187502	-422.2342224121095	615.0164184570314	-1107.063354492188	-342.7780761718751	604.3860473632814	-1127.112426757813	-314.6523437500001	634.4340820312501	-1101.747192382813	-318.7012023925782	556.5241088867189	-1154.424072265625	-193.7757873535157	448.7901306152345	-1189.449340820313	-133.8862457275391	434.9629516601564	-1078.768676757813	-186.6347808837891	274.4281921386719	-1106.08251953125	-227.9391479492188	238.2576599121094	-1173.809936523438	-204.4987030029297	229.5669250488282	-1135.145385742188	-247.9019927978516	166.0222320556641	-1100.014770507813	-337.9032287597657	95.59718322753908	-1139.756469726563	-300.2702026367188	103.6539459228516	-1055.105224609375	-186.4963989257813	63.70270156860353	-1109.34033203125	-197.7920837402344	61.98780822753908	-1151.919067382813	-248.7716522216797	45.15916824340821	-1188.651977539063	-389.4088745117189	586.6054077148439	-645.8330688476564	-325.0456542968751	583.7887573242189	-629.4238281250001	-303.9658813476563	607.8815307617189	-639.0140991210939	-280.2209472656251	516.0552978515626	-610.9467773437501	-160.6226806640625	436.310272216797	-605.6399536132814	-112.0752868652344	437.1429138183595	-727.4959106445314	-140.9663696289063	311.6061401367188	-629.8079833984376	-238.6136016845704	262.5926208496094	-610.2373046875001	-197.4523315429688	245.6178588867188	-622.5755004882814	-204.905502319336	202.4464874267579	-662.3294067382814	-325.4329833984376	90.51927947998048	-660.0401611328126	-283.6929626464844	103.3155593872071	-742.2239379882814	-381.9062805175782	53.69801712036134	-723.9003906250001	-169.0945739746094	55.07670211791994	-698.3840332031251	-177.6333770751953	57.0766944885254	-653.8475341796876	-233.9103698730469	30.75174713134766	-605.4033813476564	-361.6884155273438	617.9027709960939	-999.878112792969	
1231	6.15	243.2796936035157	1093.7666015625	-899.9824829101565	83.28147888183595	1139.551025390625	-978.7287597656252	65.7841262817383	1150.578125	-831.492614746094	-32.35304641723634	1047.072143554688	-909.0540161132815	-298.4285278320313	879.6348266601565	-895.8018188476565	34.20143508911134	889.132751464844	-899.0802001953127	10.87442493438721	953.8945312500002	-1075.86767578125	-135.0998992919922	989.4229736328127	-1188.99560546875	-139.0071258544922	945.6418457031252	-1214.310424804688	-188.6026916503907	974.4965820312502	-1233.657104492188	-240.7519989013672	934.690612792969	-1273.027709960938	-295.2110290527344	959.9919433593752	-1194.3857421875	-295.5201416015626	759.3305664062501	-1094.150512695313	-292.0295410156251	707.7943725585939	-1152.468627929688	-260.0187988281251	715.1109619140626	-1053.710327148438	9.35109329223633	986.786560058594	-743.0927734375001	-158.7474670410157	1035.858642578125	-640.5424804687501	-165.6156311035157	997.033630371094	-610.7599487304689	-217.0018157958985	1026.233764648438	-601.6494750976564	-271.4025573730469	989.3276977539065	-563.9449462890626	-324.5291137695313	994.1538085937502	-642.4124145507814	-239.1553649902344	769.7960205078127	-679.4389038085939	-271.5800781250001	739.5466308593751	-616.8474731445314	-243.8644104003907	697.8748168945314	-713.0492553710939	-351.0067138671876	619.0886230468751	-772.5827636718752	-429.4322509765626	800.1475830078127	-891.844177246094	-458.3779296875001	784.054138183594	-918.7786865234377	-457.0704956054689	784.0845336914065	-861.310241699219	-422.2573547363282	614.7510375976564	-1106.95458984375	-342.8884277343751	604.2082519531251	-1127.071899414063	-314.8916320800782	634.2738037109376	-1101.751586914063	-318.8158264160157	556.3362426757814	-1154.322875976563	-193.6855773925782	448.6845703125001	-1189.390014648438	-133.7884979248047	435.0584106445314	-1078.543334960938	-186.5953674316407	274.3942871093751	-1106.109741210938	-227.9152832031251	238.2953796386719	-1173.801513671875	-204.5144348144532	229.4927368164063	-1135.145874023438	-247.8361511230469	166.0514068603516	-1099.940795898438	-337.9691772460938	95.61123657226564	-1139.739990234375	-300.2516174316407	103.6737442016602	-1055.062133789063	-186.4496765136719	63.73010635375978	-1109.423950195313	-197.8106079101563	62.04402542114259	-1151.9990234375	-248.8680419921876	45.22460937500001	-1188.613159179688	-389.4590759277345	586.4111328125001	-645.8149414062501	-325.2124938964844	583.5761718750001	-629.4904785156251	-304.0219421386719	607.6696166992189	-639.0950927734376	-280.1931152343751	515.8520507812501	-611.0090942382814	-160.6336059570313	436.2767639160157	-605.8228759765626	-112.0798950195313	437.1911010742189	-727.7766723632814	-140.9916534423828	311.5451354980469	-629.8212280273439	-238.5713500976563	262.6198425292969	-610.3360595703126	-197.3703613281251	245.6225738525391	-622.7485961914064	-204.8883514404297	202.4391174316407	-662.4855957031251	-325.4490051269532	90.49182891845705	-660.0869750976564	-283.7377929687501	103.3042984008789	-742.2691650390626	-381.9158325195313	53.71670150756837	-723.9076538085939	-169.1175689697266	55.00263977050783	-698.4454956054689	-177.637435913086	57.07259368896486	-653.8527221679689	-233.9007263183594	30.75816917419434	-605.4524536132814	-361.3514709472657	617.5231323242189	-999.0240478515627	
